<svg version="1.1" xmlns="http://www.w3.org/2000/svg" xmlns:xlink="http://www.w3.org/1999/xlink" width="69.0289" height="70.5896" viewBox="0,0,69.0289,70.5896"><g transform="translate(-206.89595,-145.33526)"><g data-paper-data="{&quot;isPaintingLayer&quot;:true}" fill-rule="nonzero" stroke-linecap="butt" stroke-linejoin="miter" stroke-miterlimit="10" stroke-dasharray="" stroke-dashoffset="0" style="mix-blend-mode: normal"><path d="M212.54587,180c0,-15.1625 12.29163,-27.45413 27.45413,-27.45413c15.1625,0 27.45413,12.29163 27.45413,27.45413c0,15.1625 -12.29163,27.45413 -27.45413,27.45413c-15.1625,0 -27.45413,-12.29163 -27.45413,-27.45413z" fill="#ffffff" stroke="#000000" stroke-width="2"/><path d="M209.49711,161.3815c0,-1.10457 0.89543,-2 2,-2c1.10457,0 2,0.89543 2,2c0,1.10457 -0.89543,2 -2,2c-1.10457,0 -2,-0.89543 -2,-2z" fill="#000000" stroke="none" stroke-width="0.5"/><path d="M226.14451,165.54335c0,-1.10457 0.89543,-2 2,-2c1.10457,0 2,0.89543 2,2c0,1.10457 -0.89543,2 -2,2c-1.10457,0 -2,-0.89543 -2,-2z" fill="#000000" stroke="none" stroke-width="0.5"/><path d="M239.15029,147.33526c0,-1.10457 0.89543,-2 2,-2c1.10457,0 2,0.89543 2,2c0,1.10457 -0.89543,2 -2,2c-1.10457,0 -2,-0.89543 -2,-2z" fill="#000000" stroke="none" stroke-width="0.5"/><path d="M249.03468,166.06358c0,-1.10457 0.89543,-2 2,-2c1.10457,0 2,0.89543 2,2c0,1.10457 -0.89543,2 -2,2c-1.10457,0 -2,-0.89543 -2,-2z" fill="#000000" stroke="none" stroke-width="0.5"/><path d="M265.68208,159.30058c0,-1.10457 0.89543,-2 2,-2c1.10457,0 2,0.89543 2,2c0,1.10457 -0.89543,2 -2,2c-1.10457,0 -2,-0.89543 -2,-2z" fill="#000000" stroke="none" stroke-width="0.5"/><path d="M254.23699,183.23121c0,-1.10457 0.89543,-2 2,-2c1.10457,0 2,0.89543 2,2c0,1.10457 -0.89543,2 -2,2c-1.10457,0 -2,-0.89543 -2,-2z" fill="#000000" stroke="none" stroke-width="0.5"/><path d="M271.92486,194.15607c0,-1.10457 0.89543,-2 2,-2c1.10457,0 2,0.89543 2,2c0,1.10457 -0.89543,2 -2,2c-1.10457,0 -2,-0.89543 -2,-2z" fill="#000000" stroke="none" stroke-width="0.5"/><path d="M243.83237,197.27746c0,-1.10457 0.89543,-2 2,-2c1.10457,0 2,0.89543 2,2c0,1.10457 -0.89543,2 -2,2c-1.10457,0 -2,-0.89543 -2,-2z" fill="#000000" stroke="none" stroke-width="0.5"/><path d="M237.5896,213.92486c0,-1.10457 0.89543,-2 2,-2c1.10457,0 2,0.89543 2,2c0,1.10457 -0.89543,2 -2,2c-1.10457,0 -2,-0.89543 -2,-2z" fill="#000000" stroke="none" stroke-width="0.5"/><path d="M223.02312,188.43353c0,-1.10457 0.89543,-2 2,-2c1.10457,0 2,0.89543 2,2c0,1.10457 -0.89543,2 -2,2c-1.10457,0 -2,-0.89543 -2,-2z" fill="#000000" stroke="none" stroke-width="0.5"/><path d="M206.89595,201.95954c0,-1.10457 0.89543,-2 2,-2c1.10457,0 2,0.89543 2,2c0,1.10457 -0.89543,2 -2,2c-1.10457,0 -2,-0.89543 -2,-2z" fill="#000000" stroke="none" stroke-width="0.5"/></g></g></svg>