<svg version="1.1" xmlns="http://www.w3.org/2000/svg" xmlns:xlink="http://www.w3.org/1999/xlink" width="111.26234" height="70.37705" viewBox="0,0,111.26234,70.37705"><g transform="translate(-156.31991,-144.81149)"><g data-paper-data="{&quot;isPaintingLayer&quot;:true}" fill-rule="nonzero" stroke-linecap="butt" stroke-linejoin="miter" stroke-miterlimit="10" stroke-dasharray="" stroke-dashoffset="0" style="mix-blend-mode: normal"><path d="M267.58223,190.35743c0,3.53179 -0.65125,6.72961 -1.93706,9.53501c-0.40912,1.08542 -1.00193,2.20424 -1.81182,3.465c-0.36737,0.56776 -0.80154,1.09377 -1.28581,1.56969c-6.75466,6.62107 -15.98074,10.07772 -27.42777,10.26141h-0.15029c-2.30443,0 -4.67566,-0.55106 -7.05524,-1.64483c-0.14194,-0.05845 -0.27553,-0.12524 -0.40912,-0.20039c-2.0957,-1.08542 -4.27489,-2.71355 -6.67117,-4.96789c-3.16442,-2.93899 -5.00129,-5.53565 -5.82788,-8.29095c-0.10854,-0.25883 -0.25048,-0.59281 -0.42582,-0.98523c-0.34233,-0.79319 -0.57611,-1.62813 -0.68465,-2.48812c-0.15029,-0.34233 -0.27553,-0.693 -0.38407,-1.06037c-0.33398,-1.16892 -0.50096,-2.42132 -0.50096,-3.72383c0,-3.54849 1.17726,-7.18048 3.5151,-10.80412c0.7264,-1.13552 1.49454,-2.10405 2.27939,-2.92229c-0.76814,-0.58446 -1.46949,-1.26911 -2.0957,-2.05395c-0.16699,-0.20039 -0.31728,-0.41747 -0.46757,-0.63455c-1.51124,-2.27104 -1.81182,-4.71741 -1.89531,-6.36224c-0.00835,-0.0668 -0.00835,-0.14194 -0.0167,-0.20873c-0.02505,-0.31728 -0.16699,-1.52794 -0.79319,-5.42711c-0.22543,-0.55106 -0.39242,-1.11882 -0.50931,-1.71163c-0.15864,-0.84329 -0.27553,-1.42775 -0.34233,-1.73667c-0.17534,-0.7097 -0.26718,-1.45279 -0.26718,-2.21259c0,-2.7553 0.91843,-5.27682 2.65511,-7.29737c0.15029,-0.18369 0.30893,-0.35067 0.47592,-0.51766c2.54657,-2.54657 6.01157,-3.89917 10.29481,-4.00771c0.08349,-0.00835 0.15864,-0.00835 0.24213,-0.00835c0.98523,0 3.54014,-0.0334 10.10277,-0.21708h0.25048c0.29223,0 1.77007,-0.0334 8.60823,-0.47592c0.71805,-0.09184 1.45279,-0.18369 2.20424,-0.26718c0.81824,-0.10019 1.56969,-0.15029 2.28773,-0.15029c2.26269,0 4.19975,0.49261 5.91137,1.49454c2.05395,1.21901 3.64034,2.98908 4.61722,5.12653c1.85357,4.03276 1.26076,8.52473 -1.59473,12.03983c-0.40077,0.49261 -0.85164,0.94348 -1.34425,1.34425c-0.63455,0.93513 -1.4027,2.00386 -2.32948,3.21452c5.69429,3.18112 8.79191,7.48941 10.47014,11.37188c0.31728,0.50931 0.60116,1.06037 0.85999,1.65318c0.25048,0.55941 0.44252,1.15222 0.57611,1.75337c0.58446,2.64676 0.87669,5.18497 0.87669,7.54785zM213.36125,161.80249c-0.24213,-0.49261 -0.44252,-1.01028 -0.60116,-1.55299c0.15029,0.54271 0.35067,1.06037 0.58446,1.55299z" id="ID0.9592072083614767" fill="#00993d" stroke="none" stroke-width="1"/><path d="M261.278,185.869c0.528,2.405 0.792,4.633 0.792,6.685c0,2.814 -0.499,5.22 -1.495,7.213c-0.176,0.587 -0.587,1.379 -1.231,2.375c-6.041,5.922 -14.484,8.972 -25.333,9.148c-1.174,0 -2.463,-0.323 -3.87,-0.968c-1.583,-0.822 -3.431,-2.229 -5.541,-4.223c-2.405,-2.228 -3.754,-4.016 -4.047,-5.365c-0.176,-0.469 -0.47,-1.173 -0.879,-2.111c0,-0.117 -0.206,-1.407 -0.616,-3.87c-0.118,0.176 -0.176,0.499 -0.176,0.968c-0.118,-0.41 -0.176,-0.88 -0.176,-1.407c0,-2.111 0.82,-4.442 2.463,-6.993c1.641,-2.551 3.431,-3.826 5.365,-3.826c0.938,0 1.848,0.353 2.727,1.06c0.234,0.177 0.353,0.56 0.353,1.147c0,0.236 -0.104,0.546 -0.308,0.928c-0.207,0.382 -0.339,0.691 -0.396,0.926c-0.821,0.707 -1.643,1.413 -2.463,2.12c-1.174,1.118 -1.818,2.06 -1.935,2.825c-0.118,0.471 -0.177,0.971 -0.177,1.501c0,2.944 1.32,5.843 3.959,8.697c2.639,2.854 5.423,4.281 8.356,4.281c0.527,0 1.084,-0.059 1.671,-0.176c0.996,-0.06 2.463,-0.178 4.397,-0.354c2.287,-0.529 4.632,-1.408 7.037,-2.643c2.932,-1.527 4.75,-3.157 5.453,-4.891c0.704,-1.731 1.056,-3.627 1.056,-5.683c0,-1.996 -0.352,-3.846 -1.056,-5.55c-0.176,-0.471 -0.439,-1.146 -0.791,-2.027c-2.347,-3.524 -4.956,-5.726 -7.828,-6.608c-0.704,-0.233 -2.171,-0.381 -4.398,-0.439c-2.229,-0.06 -3.842,-0.147 -4.838,-0.266c-1.935,-0.233 -3.489,-0.733 -4.662,-1.498c-0.352,-0.409 -0.527,-0.908 -0.527,-1.496c0,-1.41 0.585,-2.468 1.759,-3.173c0.938,-0.587 2.668,-2.937 5.19,-7.049c1.699,-2.408 4.162,-5.991 7.389,-10.749c-7.213,0 -14.368,0.439 -21.463,1.319c0,0.88 0.205,2.493 0.616,4.838c0.527,3.108 0.82,4.956 0.879,5.542c0.058,0.703 -0.234,1.422 -0.879,2.154c-0.646,0.734 -1.467,1.188 -2.463,1.363c-0.939,0.177 -1.76,-0.176 -2.463,-1.055c-0.235,-0.353 -0.383,-1.056 -0.44,-2.111c0,-0.88 -0.47,-4.163 -1.407,-9.852c-0.059,-0.117 -0.176,-0.264 -0.352,-0.44c-0.353,-1.816 -0.528,-2.696 -0.528,-2.639c0,-0.645 0.176,-1.172 0.528,-1.583c0.996,-0.996 2.608,-1.524 4.838,-1.583c1.816,0 5.951,-0.088 12.402,-0.265c1.231,0 5.014,-0.204 11.347,-0.615c0.938,-0.117 1.905,-0.233 2.902,-0.352c1.465,-0.176 2.448,-0.117 2.947,0.176c0.497,0.294 0.864,0.703 1.099,1.231c0.469,0.998 0.322,1.965 -0.439,2.902c-0.411,0.235 -0.91,0.675 -1.495,1.319c-0.763,1.231 -1.922,2.859 -3.475,4.882c-1.554,2.023 -2.683,3.622 -3.386,4.794c-0.939,1.643 -2.375,4.105 -4.311,7.389c10.496,1.583 17.034,5.894 19.615,12.931c0.234,0.237 0.47,0.618 0.704,1.146z" id="ID0.3873927383683622" fill="#ffffff" stroke="none" stroke-width="1"/><path d="M175.67004,200.88068v-44.72898h9.93977v44.72898z" fill="#00ff65" stroke="#ffffff" stroke-width="4"/><path d="M203.04889,182.70224h-44.72898v-9.93977h44.72898z" data-paper-data="{&quot;index&quot;:null}" fill="#00ff65" stroke="#ffffff" stroke-width="4"/></g></g></svg>