<svg version="1.1" xmlns="http://www.w3.org/2000/svg" xmlns:xlink="http://www.w3.org/1999/xlink" width="63.79626" height="57.968" viewBox="0,0,63.79626,57.968"><g transform="translate(-195.42425,-150.56469)"><g data-paper-data="{&quot;isPaintingLayer&quot;:true}" fill="#ffffff" fill-rule="nonzero" stroke="none" stroke-width="1" stroke-linecap="butt" stroke-linejoin="miter" stroke-miterlimit="10" stroke-dasharray="" stroke-dashoffset="0" style="mix-blend-mode: normal"><path d="M221.90025,205.80369c-0.763,0.938 -1.525,1.554 -2.287,1.848c-0.763,0.293 -1.906,0.381 -3.431,0.264c-1.701,-0.118 -2.814,-0.118 -3.343,0c-0.059,0 -0.483,0.102 -1.275,0.308c-0.791,0.205 -1.394,0.309 -1.803,0.309c-0.118,0 -0.338,-0.104 -0.66,-0.309c-0.323,-0.206 -0.571,-0.308 -0.747,-0.308c-0.295,0 -1.071,0.044 -2.331,0.132c-1.262,0.088 -2.243,0.132 -2.947,0.132c-1.231,0 -2.493,0 -3.782,0c-1.525,-0.059 -2.405,-0.264 -2.639,-0.615c-0.527,-0.704 -0.792,-1.231 -0.792,-1.583c-0.176,-0.177 -0.322,-0.44 -0.439,-0.792c0.469,-2.404 2.756,-3.371 6.861,-2.902c2.99,0.294 4.75,0.264 5.277,-0.089c0.233,-6.273 0.088,-16.302 -0.439,-30.082c0.233,-2.58 0.468,-6.802 0.703,-12.667c-0.411,-0.058 -0.998,0.207 -1.759,0.792c-0.88,0.763 -1.438,1.203 -1.672,1.319c-0.763,0.294 -1.525,0.44 -2.287,0.44c-0.997,0 -1.729,-0.322 -2.198,-0.968c-0.294,-0.353 -0.44,-0.762 -0.44,-1.231c0,-1.056 1.056,-2.257 3.167,-3.606c2.463,-1.524 3.928,-2.903 4.398,-4.135c1.231,-0.997 2.52,-1.496 3.87,-1.496c1.759,0 2.814,0.88 3.166,2.639c-0.118,0.235 -0.234,0.559 -0.352,0.968c-0.235,1.818 -0.439,5.277 -0.616,10.38c0,0.294 -0.03,0.938 -0.088,1.935c-0.059,0.998 -0.088,1.555 -0.088,1.672v9.411c0,0.118 0.044,0.836 0.132,2.155c0.088,1.319 0.133,2.038 0.133,2.155v20.055c1.583,0.294 2.667,0.323 3.254,0.088c0.762,-0.292 1.437,-0.439 2.023,-0.439c1.349,0 2.492,0.763 3.431,2.287c0.116,0.174 0.116,0.819 0,1.933z"/><path d="M259.178,190.417c0.234,1.818 -0.498,5.16 -2.198,10.027c-0.646,1.818 -2.581,3.576 -5.806,5.277c-2.874,1.465 -5.806,2.199 -8.796,2.199c-4.105,0 -8.064,-1.438 -11.875,-4.311c-0.528,-0.41 -1.848,-2.051 -3.958,-4.926l-1.496,-2.814c-0.41,-0.41 -0.879,-1.113 -1.407,-2.111c-0.527,-1.759 -1.231,-4.455 -2.11,-8.092c-0.353,-1.936 -0.528,-4.34 -0.528,-7.213c0,-3.107 0.029,-4.867 0.088,-5.277c0.233,-1.113 1.085,-3.432 2.551,-6.949c0.353,-0.527 0.85,-1.289 1.495,-2.287c1.584,-2.932 4.017,-5.336 7.301,-7.213c2.815,-1.584 5.688,-2.492 8.62,-2.727c0.293,0 1.672,0.118 4.135,0.352c0.293,0.059 1.583,0.383 3.87,0.968c0.88,0.235 1.744,0.835 2.595,1.804c0.85,0.967 1.275,1.891 1.275,2.77c0,0.528 -0.176,0.998 -0.527,1.408c-0.527,0.586 -1.291,0.91 -2.287,0.967c-0.938,0.119 -1.672,0 -2.199,-0.352c-0.294,-0.645 -1.086,-1.465 -2.375,-2.463c-1.467,-0.586 -2.902,-0.879 -4.31,-0.879c-4.165,0 -7.8,2.346 -10.907,7.037c-2.757,4.221 -3.93,8.092 -3.519,11.609c3.928,-3.811 8.884,-5.717 14.865,-5.717c0.938,0 1.905,0.059 2.902,0.176c0.058,0 0.234,0.088 0.528,0.264c2.228,0 4.603,1.057 7.125,3.167c2.287,1.878 3.987,3.988 5.102,6.333c0.293,0.471 0.732,1.319 1.319,2.551c0.233,0.764 0.381,1.848 0.439,3.255c0.057,1.935 0.088,2.991 0.088,3.167zM253.812,190.464c0.176,-3.882 -0.675,-6.971 -2.551,-9.266c-2.815,-3.588 -6.363,-5.383 -10.644,-5.383c-3.988,0 -8.151,2.501 -12.49,7.501c-0.235,0.118 -0.558,0.294 -0.968,0.529c1.231,6.767 3.107,11.59 5.63,14.472c2.814,3.178 5.951,4.678 9.411,4.502c1.349,0.176 2.888,-0.016 4.618,-0.574c1.729,-0.557 3.005,-1.338 3.827,-2.338c1.936,-2.295 2.992,-5.441 3.167,-9.443z"/></g></g></svg>