<svg version="1.1" xmlns="http://www.w3.org/2000/svg" xmlns:xlink="http://www.w3.org/1999/xlink" width="49.85159" height="55.59173" viewBox="0,0,49.85159,55.59173"><g transform="translate(-215.0742,-147.62653)"><g data-paper-data="{&quot;isPaintingLayer&quot;:true}" fill="#ffbc1f" fill-rule="nonzero" stroke="#ff0000" stroke-width="2" stroke-linecap="butt" stroke-linejoin="miter" stroke-miterlimit="10" stroke-dasharray="" stroke-dashoffset="0" style="mix-blend-mode: normal"><path d="M238.75059,202.06451c0,0 -12.47604,-6.83319 -16.89177,-12.71568c-4.08209,-5.438 -5.78462,-15.8711 -5.78462,-15.8711c0,-8.46291 4.62661,-19.88904 13.54063,-20.59161c-9.2869,11.53411 -0.63745,13.10755 -0.1916,21.00721c0.54603,9.67449 -0.41273,7.12525 2.87061,1.86596c4.75002,-7.60866 7.96306,-4.05881 6.45676,-27.08908c8.65739,0.3468 9.80979,24.42941 9.35343,22.21106c-1.38394,-6.72724 15.43164,-18.12734 11.21025,-11.41002c-1.12419,1.78886 1.85008,5.94302 3.26158,7.53923c6.78288,7.67086 -13.68635,35.05402 -23.82525,35.05402z" data-paper-data="{&quot;index&quot;:null}"/></g></g></svg>