<svg version="1.1" xmlns="http://www.w3.org/2000/svg" xmlns:xlink="http://www.w3.org/1999/xlink" width="66.64575" height="62.28991" viewBox="0,0,66.64575,62.28991"><g transform="translate(-195.42425,-149.00009)"><g data-paper-data="{&quot;isPaintingLayer&quot;:true}" fill="#ffffff" fill-rule="nonzero" stroke="none" stroke-width="1" stroke-linecap="butt" stroke-linejoin="miter" stroke-miterlimit="10" stroke-dasharray="" stroke-dashoffset="0" style="mix-blend-mode: normal"><path d="M221.90025,205.80369c-0.763,0.938 -1.525,1.554 -2.287,1.848c-0.763,0.293 -1.906,0.381 -3.431,0.264c-1.701,-0.118 -2.814,-0.118 -3.343,0c-0.059,0 -0.483,0.102 -1.275,0.308c-0.791,0.205 -1.394,0.309 -1.803,0.309c-0.118,0 -0.338,-0.104 -0.66,-0.309c-0.323,-0.206 -0.571,-0.308 -0.747,-0.308c-0.295,0 -1.071,0.044 -2.331,0.132c-1.262,0.088 -2.243,0.132 -2.947,0.132c-1.231,0 -2.493,0 -3.782,0c-1.525,-0.059 -2.405,-0.264 -2.639,-0.615c-0.527,-0.704 -0.792,-1.231 -0.792,-1.583c-0.176,-0.177 -0.322,-0.44 -0.439,-0.792c0.469,-2.404 2.756,-3.371 6.861,-2.902c2.99,0.294 4.75,0.264 5.277,-0.089c0.233,-6.273 0.088,-16.302 -0.439,-30.082c0.233,-2.58 0.468,-6.802 0.703,-12.667c-0.411,-0.058 -0.998,0.207 -1.759,0.792c-0.88,0.763 -1.438,1.203 -1.672,1.319c-0.763,0.294 -1.525,0.44 -2.287,0.44c-0.997,0 -1.729,-0.322 -2.198,-0.968c-0.294,-0.353 -0.44,-0.762 -0.44,-1.231c0,-1.056 1.056,-2.257 3.167,-3.606c2.463,-1.524 3.928,-2.903 4.398,-4.135c1.231,-0.997 2.52,-1.496 3.87,-1.496c1.759,0 2.814,0.88 3.166,2.639c-0.118,0.235 -0.234,0.559 -0.352,0.968c-0.235,1.818 -0.439,5.277 -0.616,10.38c0,0.294 -0.03,0.938 -0.088,1.935c-0.059,0.998 -0.088,1.555 -0.088,1.672v9.411c0,0.118 0.044,0.836 0.132,2.155c0.088,1.319 0.133,2.038 0.133,2.155v20.055c1.583,0.294 2.667,0.323 3.254,0.088c0.762,-0.292 1.437,-0.439 2.023,-0.439c1.349,0 2.492,0.763 3.431,2.287c0.116,0.174 0.116,0.819 0,1.933z"/><path d="M261.278,185.869c0.528,2.405 0.792,4.633 0.792,6.685c0,2.814 -0.499,5.22 -1.495,7.213c-0.176,0.587 -0.587,1.379 -1.231,2.375c-6.041,5.922 -14.484,8.972 -25.333,9.148c-1.174,0 -2.463,-0.323 -3.87,-0.968c-1.583,-0.822 -3.431,-2.229 -5.541,-4.223c-2.405,-2.228 -3.754,-4.016 -4.047,-5.365c-0.176,-0.469 -0.47,-1.173 -0.879,-2.111c0,-0.117 -0.206,-1.407 -0.616,-3.87c-0.118,0.176 -0.176,0.499 -0.176,0.968c-0.118,-0.41 -0.176,-0.88 -0.176,-1.407c0,-2.111 0.82,-4.442 2.463,-6.993c1.641,-2.551 3.431,-3.826 5.365,-3.826c0.938,0 1.848,0.353 2.727,1.06c0.234,0.177 0.353,0.56 0.353,1.147c0,0.236 -0.104,0.546 -0.308,0.928c-0.207,0.382 -0.339,0.691 -0.396,0.926c-0.821,0.707 -1.643,1.413 -2.463,2.12c-1.174,1.118 -1.818,2.06 -1.935,2.825c-0.118,0.471 -0.177,0.971 -0.177,1.501c0,2.944 1.32,5.843 3.959,8.697c2.639,2.854 5.423,4.281 8.356,4.281c0.527,0 1.084,-0.059 1.671,-0.176c0.996,-0.06 2.463,-0.178 4.397,-0.354c2.287,-0.529 4.632,-1.408 7.037,-2.643c2.932,-1.527 4.75,-3.157 5.453,-4.891c0.704,-1.731 1.056,-3.627 1.056,-5.683c0,-1.996 -0.352,-3.846 -1.056,-5.55c-0.176,-0.471 -0.439,-1.146 -0.791,-2.027c-2.347,-3.524 -4.956,-5.726 -7.828,-6.608c-0.704,-0.233 -2.171,-0.381 -4.398,-0.439c-2.229,-0.06 -3.842,-0.147 -4.838,-0.266c-1.935,-0.233 -3.489,-0.733 -4.662,-1.498c-0.352,-0.409 -0.527,-0.908 -0.527,-1.496c0,-1.41 0.585,-2.468 1.759,-3.173c0.938,-0.587 2.668,-2.937 5.19,-7.049c1.699,-2.408 4.162,-5.991 7.389,-10.749c-7.213,0 -14.368,0.439 -21.463,1.319c0,0.88 0.205,2.493 0.616,4.838c0.527,3.108 0.82,4.956 0.879,5.542c0.058,0.703 -0.234,1.422 -0.879,2.154c-0.646,0.734 -1.467,1.188 -2.463,1.363c-0.939,0.177 -1.76,-0.176 -2.463,-1.055c-0.235,-0.353 -0.383,-1.056 -0.44,-2.111c0,-0.88 -0.47,-4.163 -1.407,-9.852c-0.059,-0.117 -0.176,-0.264 -0.352,-0.44c-0.353,-1.816 -0.528,-2.696 -0.528,-2.639c0,-0.645 0.176,-1.172 0.528,-1.583c0.996,-0.996 2.608,-1.524 4.838,-1.583c1.816,0 5.951,-0.088 12.402,-0.265c1.231,0 5.014,-0.204 11.347,-0.615c0.938,-0.117 1.905,-0.233 2.902,-0.352c1.465,-0.176 2.448,-0.117 2.947,0.176c0.497,0.294 0.864,0.703 1.099,1.231c0.469,0.998 0.322,1.965 -0.439,2.902c-0.411,0.235 -0.91,0.675 -1.495,1.319c-0.763,1.231 -1.922,2.859 -3.475,4.882c-1.554,2.023 -2.683,3.622 -3.386,4.794c-0.939,1.643 -2.375,4.105 -4.311,7.389c10.496,1.583 17.034,5.894 19.615,12.931c0.234,0.237 0.47,0.618 0.704,1.146z"/></g></g></svg>