<svg version="1.1" xmlns="http://www.w3.org/2000/svg" xmlns:xlink="http://www.w3.org/1999/xlink" width="27.09527" height="24.59372" viewBox="0,0,27.09527,24.59372"><g transform="translate(-226.67163,-167.6948)"><g data-paper-data="{&quot;isPaintingLayer&quot;:true}" stroke-linejoin="miter" stroke-miterlimit="10" stroke-dasharray="" stroke-dashoffset="0" style="mix-blend-mode: normal"><g data-paper-data="{&quot;index&quot;:null}" stroke-linecap="butt"><path d="M240.29405,191.80612c-2.59887,0.04148 -5.17789,-0.45482 -7.56911,-1.45646c0.06319,-4.38724 4.98531,-8.85952 4.98531,-8.85952l5.46363,0.07869c0,0 4.79128,4.61218 4.72809,8.99942c-2.41908,0.93236 -5.01132,1.35417 -7.60792,1.23786z" fill="#997474" fill-rule="evenodd" stroke="#ffffff" stroke-width="0.96"/><g fill="none" fill-rule="nonzero" stroke="none" stroke-width="1" font-family="sans-serif" font-weight="normal" font-size="12" text-anchor="start"/></g><g data-paper-data="{&quot;index&quot;:null}" stroke-linecap="butt"><path d="M248.02526,169.65014c-0.06319,4.38724 -4.98531,8.85952 -4.98531,8.85952l-5.46363,-0.07869c0,0 -4.79128,-4.61218 -4.72809,-8.99942c2.41908,-0.93236 5.01132,-1.35417 7.60792,-1.23786c2.59887,-0.04148 5.17789,0.45482 7.56911,1.45646z" fill="#997474" fill-rule="evenodd" stroke="#ffffff" stroke-width="0.96"/><g fill="none" fill-rule="nonzero" stroke="none" stroke-width="1" font-family="sans-serif" font-weight="normal" font-size="12" text-anchor="start"/></g><path d="M237.01368,176.20028c0.00735,-0.51026 0.01331,-0.9239 0.01331,-0.9239l7.06641,0.10178c0,0 -0.00596,0.41365 -0.01331,0.9239l-0.09375,6.5094c-0.00735,0.51026 -0.01331,0.9239 -0.01331,0.9239l-7.06641,-0.10178c0,0 0.00596,-0.41365 0.01331,-0.9239z" fill="#997474" fill-rule="evenodd" stroke="#ffffff" stroke-width="0.96" stroke-linecap="butt"/><path d="M233.81059,168.98781c0,0 -3.3166,1.51923 -4.37127,2.81206c-1.0746,1.31725 -2.01769,5.01957 -2.01769,5.01957" fill="none" fill-rule="nonzero" stroke="#ffffff" stroke-width="1.5" stroke-linecap="round"/><path d="M246.0202,191.3554c0,0 3.42779,-1.24824 4.58279,-2.45228c1.17682,-1.22679 2.41391,-4.84151 2.41391,-4.84151" fill="none" fill-rule="nonzero" stroke="#ffffff" stroke-width="1.5" stroke-linecap="round"/></g></g></svg>