<svg version="1.1" xmlns="http://www.w3.org/2000/svg" xmlns:xlink="http://www.w3.org/1999/xlink" width="68.86855" height="59.18394" viewBox="0,0,68.86855,59.18394"><g transform="translate(-189.99145,-149.99203)"><g data-paper-data="{&quot;isPaintingLayer&quot;:true}" fill="#ffffff" fill-rule="nonzero" stroke="none" stroke-width="1" stroke-linecap="butt" stroke-linejoin="miter" stroke-miterlimit="10" stroke-dasharray="" stroke-dashoffset="0" style="mix-blend-mode: normal"><path d="M225.26245,205.97448c0,0.72922 -0.704,1.37604 -2.111,1.93757c-1.35,0.56153 -3.343,0.43504 -5.981,-0.37946c-2.639,-0.81546 -6.509,-1.84174 -11.61,-3.07692c-2.405,-0.28172 -4.486,0.22423 -6.245,1.51786c-3.05,2.13497 -5.221,3.20245 -6.51,3.20245c-0.879,0 -1.671,-0.3373 -2.375,-1.00999v-1.85228c0,-0.05654 0.073,-0.16865 0.221,-0.33634c0.146,-0.16961 0.233,-0.35168 0.264,-0.5462c0.028,-0.1974 0.132,-0.52033 0.308,-0.96783c0.233,-3.0865 0.938,-6.08772 2.111,-9.00557c0.293,-0.84038 1.113,-2.63517 2.463,-5.38533c1.759,-3.534 4.954,-7.60174 9.588,-12.20323c1.348,-1.23326 3.283,-3.08554 5.805,-5.55494c1.113,-1.00903 2.229,-1.99123 3.343,-2.94468c1.583,-1.45749 2.403,-2.60738 2.463,-3.45063c0.116,-0.16865 0.264,-0.44942 0.439,-0.84134c0.058,-0.61711 0.029,-1.45749 -0.088,-2.52497c-0.059,-0.11211 -0.132,-0.36509 -0.22,-0.75701c-0.088,-0.39288 -0.191,-1.00999 -0.308,-1.85228c-1.76,-3.36631 -5.132,-5.04994 -10.115,-5.04994c-3.343,0 -5.894,0.8078 -7.653,2.42052c-0.176,0.05558 -0.41,0.1399 -0.703,0.2501c-0.998,0.61232 -1.613,1.19685 -1.848,1.75263c-1.231,2.72716 -2.581,4.08978 -4.046,4.08978c-1.643,0 -2.463,-1.03874 -2.463,-3.11812c0,-0.95537 0.85,-2.86611 2.551,-5.73125c0.352,-0.22423 0.82,-0.53374 1.407,-0.92758c0.293,-0.28077 0.82,-0.64586 1.584,-1.09623c1.699,-0.56153 3.443,-1.10869 5.233,-1.64339c1.788,-0.53374 3.387,-0.82888 4.794,-0.88542c3.752,-0.11211 7.271,0.5347 10.555,1.93757c2.228,0.89979 4.046,2.54318 5.454,4.93112c1.407,2.3889 2.052,4.62161 1.935,6.70004c-0.176,1.91074 -0.851,3.65282 -2.023,5.22626c-0.703,0.8423 -2.198,2.24804 -4.485,4.2134c-2.054,2.08035 -5.22,5.14193 -9.5,9.18764c-0.352,0.78768 -1.144,1.65776 -2.375,2.61313c-0.059,0.22519 -0.206,0.56249 -0.439,1.0119c-0.763,1.29363 -1.847,2.7262 -3.255,4.29868c0.058,0.50499 -0.176,1.09623 -0.703,1.76988c-0.646,0.95633 -0.968,1.49007 -0.968,1.60218c-0.47,1.06748 -1.086,2.64188 -1.848,4.72031c-0.176,0.6746 -0.47,1.7143 -0.879,3.11908c1.348,-0.39288 3.136,-0.87104 5.365,-1.43353c1.349,-0.22327 2.668,-0.3373 3.958,-0.3373c2.64,0 5.688,0.61903 9.148,1.85516c0.82,0.28172 2.052,0.70239 3.694,1.26392c0.82,-0.05558 1.641,-0.08433 2.463,-0.08433c1.348,0 2.315,0.30855 2.902,0.92758c0.408,0.45133 0.644,1.2668 0.703,2.44735z"/><path d="M258.859,179.725c0,2.17 -0.471,5.836 -1.408,10.995c-0.293,1.877 -0.879,3.842 -1.76,5.894c-1.35,3.05 -3.65,5.748 -6.904,8.093c-3.255,2.345 -6.407,3.518 -9.456,3.518c-0.997,0 -1.906,-0.146 -2.727,-0.439c-4.457,-1.407 -7.916,-4.075 -10.379,-8.005c-0.471,-0.761 -1.086,-2.052 -1.848,-3.87c-0.821,-2.052 -1.275,-3.635 -1.363,-4.75c-0.088,-1.113 -0.308,-2.579 -0.66,-4.397v-6.51c0.234,-0.116 0.117,-0.292 -0.352,-0.527h0.528c0,-0.293 0.116,-0.85 0.352,-1.671c0.233,-0.821 0.352,-1.437 0.352,-1.848c0,-0.352 -0.088,-0.674 -0.264,-0.968c0.233,0 0.439,-0.088 0.615,-0.264c-0.059,-0.117 -0.206,-0.176 -0.439,-0.176c0.058,-0.058 0.161,-0.146 0.308,-0.264c0.146,-0.117 0.249,-0.205 0.309,-0.264c-0.06,-0.059 -0.132,-0.103 -0.221,-0.133c-0.088,-0.028 -0.162,-0.072 -0.22,-0.132c0.353,-0.938 0.674,-2.228 0.968,-3.87c0.233,-1.348 0.704,-3.195 1.407,-5.541c1.056,-3.4 3.46,-6.919 7.213,-10.556c1.056,-0.996 2.199,-1.612 3.431,-1.847c0.176,0 1.319,-0.059 3.431,-0.177c2.932,-0.116 5.687,0.499 8.268,1.848c2.992,1.525 5.336,3.812 7.037,6.861c0.881,1.583 1.701,3.724 2.463,6.421c0.881,2.99 1.32,5.571 1.32,7.74v4.839zM253.054,169.962c-0.35,-0.82 -0.76,-1.876 -1.227,-3.167c-0.586,-2.639 -2.325,-5.071 -5.217,-7.301c-2.893,-2.228 -5.566,-3.224 -8.021,-2.99c-1.11,0.118 -2.981,1.966 -5.612,5.542c-1.286,1.701 -2.571,5.102 -3.856,10.203c-1.169,4.75 -1.725,8.415 -1.665,10.995c0.116,3.284 0.292,5.571 0.526,6.86c0.408,2.405 1.285,4.604 2.629,6.598c1.286,1.759 2.28,2.902 2.981,3.431c2.629,1.877 5.112,2.814 7.451,2.814c0.525,0 1.022,-0.058 1.49,-0.176c1.11,-0.176 2.424,-0.908 3.944,-2.199c1.286,-1.173 2.25,-2.257 2.894,-3.255c0.876,-1.465 1.695,-3.664 2.455,-6.597c1.168,-4.28 1.754,-8.825 1.754,-13.634c0.002,-2.579 -0.174,-4.954 -0.526,-7.124z"/></g></g></svg>