<svg version="1.1" xmlns="http://www.w3.org/2000/svg" xmlns:xlink="http://www.w3.org/1999/xlink" width="49.85159" height="50.58096" viewBox="0,0,49.85159,50.58096"><g transform="translate(-215.07421,-152.48354)"><g data-paper-data="{&quot;isPaintingLayer&quot;:true}" fill="#ffbc1f" fill-rule="nonzero" stroke="#ff0000" stroke-width="2" stroke-linecap="butt" stroke-linejoin="miter" stroke-miterlimit="10" stroke-dasharray="" stroke-dashoffset="0" style="mix-blend-mode: normal"><path d="M241.24939,202.0645c-10.1389,0 -30.60813,-24.89418 -23.82525,-31.86781c1.4115,-1.45113 3.68262,-9.44658 2.55843,-11.07285c-4.22139,-6.10675 11.89104,14.10121 10.5071,20.21698c-0.45636,2.01672 2.10234,-25.50211 10.75973,-25.81739c-1.5063,20.93695 1.70674,17.70976 6.45676,24.62683c3.28334,4.78125 2.32458,7.09878 2.87061,-1.69636c0.44585,-7.18163 9.0953,-8.61204 -0.1916,-19.09777c8.91402,0.63871 13.54063,11.02627 13.54063,18.71995c0,0 -1.70253,9.48479 -5.78462,14.42851c-4.41573,5.3478 -16.89177,11.55989 -16.89177,11.55989z" data-paper-data="{&quot;index&quot;:null}"/></g></g></svg>