<svg version="1.1" xmlns="http://www.w3.org/2000/svg" xmlns:xlink="http://www.w3.org/1999/xlink" width="27.09528" height="24.59372" viewBox="0,0,27.09528,24.59372"><g transform="translate(-226.67162,-167.6948)"><g data-paper-data="{&quot;isPaintingLayer&quot;:true}" stroke-miterlimit="10" stroke-dasharray="" stroke-dashoffset="0" style="mix-blend-mode: normal"><g data-paper-data="{&quot;index&quot;:null}" id="Group-5" fill-rule="evenodd"><path d="M240.29405,191.80612c-2.59887,0.04148 -5.17789,-0.45482 -7.56911,-1.45646c0.06319,-4.38724 4.98531,-8.85952 4.98531,-8.85952l5.46363,0.07869c0,0 4.79128,4.61218 4.72809,8.99942c-2.41908,0.93236 -5.01132,1.35417 -7.60792,1.23786z" id="Shape" fill="#c20d0d" stroke="#ffffff" stroke-width="0.96" stroke-linecap="butt" stroke-linejoin="miter"/><g id="Group" fill="#000000" stroke="#00b82b" stroke-width="1" stroke-linecap="round" stroke-linejoin="round" font-family="&quot;Helvetica Neue&quot;, Helvetica, Arial, sans-serif" font-weight="400" font-size="16" text-anchor="start"/></g><g data-paper-data="{&quot;index&quot;:null}" id="Group-4" fill-rule="evenodd"><path d="M248.02526,169.65014c-0.06319,4.38724 -4.98531,8.85952 -4.98531,8.85952l-5.46363,-0.07869c0,0 -4.79128,-4.61218 -4.72809,-8.99942c2.41908,-0.93236 5.01132,-1.35417 7.60792,-1.23786c2.59887,-0.04148 5.17789,0.45482 7.56911,1.45646z" id="Shape" fill="#c20d0d" stroke="#ffffff" stroke-width="0.96" stroke-linecap="butt" stroke-linejoin="miter"/><g id="Group-2" fill="#000000" stroke="#00b82b" stroke-width="1" stroke-linecap="round" stroke-linejoin="round" font-family="&quot;Helvetica Neue&quot;, Helvetica, Arial, sans-serif" font-weight="400" font-size="16" text-anchor="start"/></g><path d="M237.01368,176.20028c0.00735,-0.51026 0.01331,-0.9239 0.01331,-0.9239l7.06641,0.10178c0,0 -0.00596,0.41365 -0.01331,0.9239l-0.09375,6.5094c-0.00735,0.51026 -0.01331,0.9239 -0.01331,0.9239l-7.06641,-0.10178c0,0 0.00596,-0.41365 0.01331,-0.9239z" id="Rectangle-path" fill="#c20d0d" fill-rule="evenodd" stroke="#ffffff" stroke-width="0.96" stroke-linecap="butt" stroke-linejoin="miter"/><path d="M253.0169,184.06161c0,0 -1.23709,3.61472 -2.41391,4.84151c-1.155,1.20404 -4.58279,2.45228 -4.58279,2.45228" fill="none" fill-rule="nonzero" stroke="#ffffff" stroke-width="1.5" stroke-linecap="round" stroke-linejoin="miter"/><path d="M227.42163,176.81944c0,0 0.94309,-3.70232 2.01769,-5.01957c1.05467,-1.29283 4.37127,-2.81206 4.37127,-2.81206" fill="none" fill-rule="nonzero" stroke="#ffffff" stroke-width="1.5" stroke-linecap="round" stroke-linejoin="miter"/></g></g></svg>