<svg version="1.1" xmlns="http://www.w3.org/2000/svg" xmlns:xlink="http://www.w3.org/1999/xlink" width="58.17098" height="70.23678" viewBox="0,0,58.17098,70.23678"><g transform="translate(-211.9099,-162.82734)"><g data-paper-data="{&quot;isPaintingLayer&quot;:true}" fill="#ffbc1f" fill-rule="nonzero" stroke="#ff0000" stroke-width="2" stroke-linecap="butt" stroke-linejoin="miter" stroke-miterlimit="10" stroke-dasharray="" stroke-dashoffset="0" style="mix-blend-mode: normal"><path d="M239.52878,163.82734c11.90163,0 35.92961,34.97082 27.96747,44.76721c-1.6569,2.03851 -5.14827,7.34374 -3.82863,9.62829c4.95532,8.57863 -14.78379,-5.98034 -13.15924,-14.57164c0.5357,-2.83303 -0.81705,27.92267 -10.9796,28.36557c1.76819,-29.41177 -2.00347,-24.87829 -7.57932,-34.59524c-3.85418,-6.71661 -2.72873,-9.97222 -3.36969,2.383c-0.52337,10.0886 -10.6766,12.09801 0.22491,26.82814c-10.46379,-0.89725 -15.89478,-15.48946 -15.89478,-26.29738c0,0 1.99854,-13.32403 6.79033,-20.26886c5.18345,-7.51247 19.82855,-16.23908 19.82855,-16.23908z"/></g></g></svg>