<svg version="1.1" xmlns="http://www.w3.org/2000/svg" xmlns:xlink="http://www.w3.org/1999/xlink" width="44.568" height="62.691" viewBox="0,0,44.568,62.691"><g transform="translate(-217.752,-148.849)"><g data-paper-data="{&quot;isPaintingLayer&quot;:true}" fill="#ffffff" fill-rule="nonzero" stroke="#ffffff" stroke-width="0.5" stroke-linecap="butt" stroke-linejoin="miter" stroke-miterlimit="10" stroke-dasharray="" stroke-dashoffset="0" style="mix-blend-mode: normal"><path d="M261.278,185.869c0.528,2.405 0.792,4.633 0.792,6.685c0,2.814 -0.499,5.22 -1.495,7.213c-0.176,0.587 -0.587,1.379 -1.231,2.375c-6.041,5.922 -14.484,8.972 -25.333,9.148c-1.174,0 -2.463,-0.323 -3.87,-0.968c-1.583,-0.822 -3.431,-2.229 -5.541,-4.223c-2.405,-2.228 -3.754,-4.016 -4.047,-5.365c-0.176,-0.469 -0.47,-1.173 -0.879,-2.111c0,-0.117 -0.206,-1.407 -0.616,-3.87c-0.118,0.176 -0.176,0.499 -0.176,0.968c-0.118,-0.41 -0.176,-0.88 -0.176,-1.407c0,-2.111 0.82,-4.442 2.463,-6.993c1.641,-2.551 3.431,-3.826 5.365,-3.826c0.938,0 1.848,0.353 2.727,1.06c0.234,0.177 0.353,0.56 0.353,1.147c0,0.236 -0.104,0.546 -0.308,0.928c-0.207,0.382 -0.339,0.691 -0.396,0.926c-0.821,0.707 -1.643,1.413 -2.463,2.12c-1.174,1.118 -1.818,2.06 -1.935,2.825c-0.118,0.471 -0.177,0.971 -0.177,1.501c0,2.944 1.32,5.843 3.959,8.697c2.639,2.854 5.423,4.281 8.356,4.281c0.527,0 1.084,-0.059 1.671,-0.176c0.996,-0.06 2.463,-0.178 4.397,-0.354c2.287,-0.529 4.632,-1.408 7.037,-2.643c2.932,-1.527 4.75,-3.157 5.453,-4.891c0.704,-1.731 1.056,-3.627 1.056,-5.683c0,-1.996 -0.352,-3.846 -1.056,-5.55c-0.176,-0.471 -0.439,-1.146 -0.791,-2.027c-2.347,-3.524 -4.956,-5.726 -7.828,-6.608c-0.704,-0.233 -2.171,-0.381 -4.398,-0.439c-2.229,-0.06 -3.842,-0.147 -4.838,-0.266c-1.935,-0.233 -3.489,-0.733 -4.662,-1.498c-0.352,-0.409 -0.527,-0.908 -0.527,-1.496c0,-1.41 0.585,-2.468 1.759,-3.173c0.938,-0.587 2.668,-2.937 5.19,-7.049c1.699,-2.408 4.162,-5.991 7.389,-10.749c-7.213,0 -14.368,0.439 -21.463,1.319c0,0.88 0.205,2.493 0.616,4.838c0.527,3.108 0.82,4.956 0.879,5.542c0.058,0.703 -0.234,1.422 -0.879,2.154c-0.646,0.734 -1.467,1.188 -2.463,1.363c-0.939,0.177 -1.76,-0.176 -2.463,-1.055c-0.235,-0.353 -0.383,-1.056 -0.44,-2.111c0,-0.88 -0.47,-4.163 -1.407,-9.852c-0.059,-0.117 -0.176,-0.264 -0.352,-0.44c-0.353,-1.816 -0.528,-2.696 -0.528,-2.639c0,-0.645 0.176,-1.172 0.528,-1.583c0.996,-0.996 2.608,-1.524 4.838,-1.583c1.816,0 5.951,-0.088 12.402,-0.265c1.231,0 5.014,-0.204 11.347,-0.615c0.938,-0.117 1.905,-0.233 2.902,-0.352c1.465,-0.176 2.448,-0.117 2.947,0.176c0.497,0.294 0.864,0.703 1.099,1.231c0.469,0.998 0.322,1.965 -0.439,2.902c-0.411,0.235 -0.91,0.675 -1.495,1.319c-0.763,1.231 -1.922,2.859 -3.475,4.882c-1.554,2.023 -2.683,3.622 -3.386,4.794c-0.939,1.643 -2.375,4.105 -4.311,7.389c10.496,1.583 17.034,5.894 19.615,12.931c0.234,0.237 0.47,0.618 0.704,1.146z"/></g></g></svg>