<svg version="1.1" xmlns="http://www.w3.org/2000/svg" xmlns:xlink="http://www.w3.org/1999/xlink" width="269.68291" height="116.05852" viewBox="0,0,269.68291,116.05852"><defs><radialGradient cx="241.018" cy="176.93051" r="60" gradientUnits="userSpaceOnUse" id="color-1"><stop offset="0" stop-color="#787878"/><stop offset="1" stop-color="#001145"/></radialGradient><linearGradient x1="241.017" y1="155.29001" x2="241.017" y2="198.57101" gradientUnits="userSpaceOnUse" id="color-2"><stop offset="0" stop-color="#bb0000"/><stop offset="1" stop-color="#000000"/></linearGradient></defs><g transform="translate(-106.9971,-88.26549)"><g data-paper-data="{&quot;isPaintingLayer&quot;:true}" fill-rule="nonzero" stroke-linejoin="miter" stroke-miterlimit="10" stroke-dasharray="" stroke-dashoffset="0" style="mix-blend-mode: normal"><g stroke="#910000"><path d="M336.33341,111.37805l33.61511,28.96344h-63.35155" fill="none" stroke-width="5" stroke-linecap="round"/><path d="M147.49331,118.9056l-33.61511,-28.14011h63.35155" data-paper-data="{&quot;index&quot;:null}" fill="none" stroke-width="5" stroke-linecap="round"/><text transform="translate(144.84277,131.12719) scale(0.98718,1.11136)" font-size="40" xml:space="preserve" fill="#ffffff" fill-rule="nonzero" stroke="#910000" stroke-width="3" stroke-linecap="butt" stroke-linejoin="miter" stroke-miterlimit="10" stroke-dasharray="" stroke-dashoffset="0" font-family="Handwriting" font-weight="normal" text-anchor="start" style="mix-blend-mode: normal"><tspan x="0" dy="0">Has Perdido</tspan></text></g><path d="M301.018,176.93001c0,14.416 -11.729,26.144 -26.144,26.144h-67.713c-14.415,0 -26.143,-11.727 -26.143,-26.144c0,-14.415 11.727,-26.143 26.143,-26.143h67.713c14.415,0 26.144,11.728 26.144,26.143z" fill="url(#color-1)" stroke="#000000" stroke-width="2.5" stroke-linecap="butt"/><path d="M296.514,176.93001c0,11.952 -9.688,21.641 -21.64,21.641h-67.713c-11.952,0 -21.641,-9.689 -21.641,-21.641v0c0,-11.951 9.689,-21.64 21.641,-21.64h67.713c11.952,0 21.64,9.689 21.64,21.64z" fill="url(#color-2)" stroke="#000000" stroke-width="3" stroke-linecap="butt"/><text transform="translate(196.59228,183.49596) scale(0.44118,0.5)" font-size="40" xml:space="preserve" fill="#f5ff00" fill-rule="nonzero" stroke="#000000" stroke-width="1" stroke-linecap="butt" stroke-linejoin="miter" stroke-miterlimit="10" stroke-dasharray="" stroke-dashoffset="0" font-family="Sans Serif" font-weight="normal" text-anchor="start" style="mix-blend-mode: normal"><tspan x="0" dy="0">Reintentar</tspan></text><g stroke="#ff3b3b"><path d="M334.26282,111.93624l33,25.25641h-62.19231" fill="none" stroke-width="1.5" stroke-linecap="round"/><path d="M148.8782,118.50034l-33,-24.53846h62.19231" data-paper-data="{&quot;index&quot;:null}" fill="none" stroke-width="1.5" stroke-linecap="round"/><text transform="translate(146.27617,129.15769) scale(0.96912,0.96912)" font-size="40" xml:space="preserve" fill="#ffffff" fill-rule="nonzero" stroke="#ff3b3b" stroke-width="3" stroke-linecap="butt" stroke-linejoin="miter" stroke-miterlimit="10" stroke-dasharray="" stroke-dashoffset="0" font-family="Handwriting" font-weight="normal" text-anchor="start" style="mix-blend-mode: normal"><tspan x="0" dy="0">Has Perdido</tspan></text></g></g></g></svg>