<svg version="1.1" xmlns="http://www.w3.org/2000/svg" xmlns:xlink="http://www.w3.org/1999/xlink" width="41.83282" height="64.095" viewBox="0,0,41.83282,64.095"><g transform="translate(-219.74218,-148.756)"><g data-paper-data="{&quot;isPaintingLayer&quot;:true}" fill="#ffffff" fill-rule="nonzero" stroke="#ffffff" stroke-width="0.5" stroke-linecap="butt" stroke-linejoin="miter" stroke-miterlimit="10" stroke-dasharray="" stroke-dashoffset="0" style="mix-blend-mode: normal"><path d="M261.325,156.569c-0.998,3.518 -3.606,10.203 -7.829,20.055c-0.118,0.352 -2.082,6.1 -5.894,17.24c-0.703,2.405 -1.73,5.865 -3.078,10.379c-0.353,1.057 -0.572,2.229 -0.66,3.52c-0.088,1.289 -0.25,2.344 -0.483,3.166c-0.118,0.469 -0.382,0.85 -0.792,1.145c-0.059,0 -0.733,0.176 -2.022,0.527c-0.528,0.176 -1.144,0.145 -1.848,-0.088c-0.235,-0.412 -0.646,-0.822 -1.231,-1.232c-0.235,-0.527 -0.235,-1.26 0,-2.197c0.354,-1.641 1.003,-4.131 1.949,-7.475c0.879,-2.579 2.14,-6.42 3.783,-11.521c0.058,0 0.176,-0.146 0.352,-0.44c1.053,-4.341 2.371,-8.417 3.952,-12.229c1.11,-2.58 2.574,-6.509 4.39,-11.787c-0.235,0.059 -0.587,0.088 -1.056,0.088c-2.581,-0.293 -4.429,-0.689 -5.542,-1.188c-1.114,-0.498 -2.785,-1.334 -5.014,-2.508c-2.405,-1.583 -4.134,-2.375 -5.189,-2.375c-0.587,0 -1.1,0.338 -1.539,1.012c-0.44,0.675 -0.836,1.335 -1.188,1.979c-0.06,0.118 -0.323,0.587 -0.792,1.407c-0.352,1.115 -1.086,3.254 -2.199,6.421c-0.763,1.818 -2.11,2.728 -4.046,2.728c-0.703,0 -1.407,-0.117 -2.111,-0.353c-0.938,-0.292 -1.466,-0.82 -1.583,-1.583c-0.176,-1.231 -0.118,-3.635 0.176,-7.213c0,-0.058 -0.118,-1.76 -0.352,-5.102c-0.118,-2.111 -0.47,-4.016 -1.056,-5.718c-0.411,-1.231 -0.527,-1.964 -0.352,-2.198c0.938,-1.35 2.228,-2.023 3.87,-2.023c1.524,0 2.639,0.646 3.343,1.936c0.409,0.762 0.557,1.965 0.439,3.605c-0.235,1.818 -0.206,3.05 0.088,3.694c2.814,-3.224 5.189,-4.69 7.125,-4.397c2.639,0.41 5.189,1.318 7.652,2.727c1.349,0.763 2.668,1.555 3.958,2.375c1.584,0.938 2.873,1.495 3.871,1.671c0.703,0.118 1.904,-0.321 3.606,-1.319c0.879,-0.527 1.348,-1.686 1.407,-3.475c0.058,-1.787 1.025,-2.683 2.902,-2.683c2.052,0 3.079,0.851 3.079,2.551c0.002,0.292 -0.028,0.585 -0.086,0.878z"/></g></g></svg>