<svg version="1.1" xmlns="http://www.w3.org/2000/svg" xmlns:xlink="http://www.w3.org/1999/xlink" width="103.62369" height="22.59" viewBox="0,0,103.62369,22.59"><defs><linearGradient x1="240.37468" y1="170.19256" x2="240.37468" y2="190.28255" gradientUnits="userSpaceOnUse" id="color-1"><stop offset="0" stop-color="#d60000"/><stop offset="1" stop-color="#3d0000"/></linearGradient></defs><g transform="translate(-188.56283,-168.94255)"><g data-paper-data="{&quot;isPaintingLayer&quot;:true}" fill-rule="nonzero" stroke-linecap="butt" stroke-linejoin="miter" stroke-miterlimit="10" stroke-dasharray="" stroke-dashoffset="0" style="mix-blend-mode: normal"><path d="M189.06355,190.33202v-20.664h101.30415v20.664z" fill="#000000" stroke="none" stroke-width="0"/><path d="M189.81284,190.28255v-20.09h101.12369v20.09z" fill="url(#color-1)" stroke="#000000" stroke-width="2.5"/><text transform="translate(201.38364,184.16319) scale(0.44477,0.39816)" font-size="40" xml:space="preserve" fill="#ffffff" fill-rule="nonzero" stroke="#ffffff" stroke-width="2" stroke-linecap="butt" stroke-linejoin="miter" stroke-miterlimit="10" stroke-dasharray="" stroke-dashoffset="0" font-family="Handwriting" font-weight="normal" text-anchor="start" style="mix-blend-mode: normal"><tspan x="0" dy="0">Puntos</tspan></text><path d="M259.05375,179.08536c-0.61258,0 -0.61258,-0.9911 -0.61258,-0.9911l0.00459,-1.01363c-0.5,-3.2139 -2.42543,-2.25048 -4.12615,-2.25048c0,0 -0.61258,0 -0.61258,-0.9911c0,-0.9911 0.61258,-0.9911 0.61258,-0.9911c2.45788,0 4.62569,-0.66736 5.34213,3.99049l0.00459,1.25582c0,0 -0.00001,0.9911 -0.61259,0.9911z" fill="#ffffff" stroke="none" stroke-width="0.5"/><path d="M194.95378,181.2779c0.52737,0 0.52737,0.9155 0.52737,0.9155l-0.00395,0.93631c0.43044,2.96875 2.08803,2.07882 3.55216,2.07882c0,0 0.52737,0 0.52737,0.9155c0,0.9155 -0.52737,0.9155 -0.52737,0.9155c-2.11596,0 -3.98222,0.61645 -4.59899,-3.68611l-0.00395,-1.16003c0,0 0,-0.9155 0.52737,-0.9155z" data-paper-data="{&quot;index&quot;:null}" fill="#ffffff" stroke="none" stroke-width="0.5"/></g></g></svg>