<svg version="1.1" xmlns="http://www.w3.org/2000/svg" xmlns:xlink="http://www.w3.org/1999/xlink" width="261.79924" height="253.16793" viewBox="0,0,261.79924,253.16793"><defs><radialGradient cx="241.018" cy="176.93051" r="60" gradientUnits="userSpaceOnUse" id="color-1"><stop offset="0" stop-color="#787878"/><stop offset="1" stop-color="#001145"/></radialGradient><linearGradient x1="241.017" y1="155.29001" x2="241.017" y2="198.57101" gradientUnits="userSpaceOnUse" id="color-2"><stop offset="0" stop-color="#bb0000"/><stop offset="1" stop-color="#000000"/></linearGradient><radialGradient cx="244.00698" cy="272.42656" r="79.43989" gradientUnits="userSpaceOnUse" id="color-3"><stop offset="0" stop-color="#787878"/><stop offset="1" stop-color="#001145"/></radialGradient><linearGradient x1="244.00565" y1="228.03596" x2="244.00565" y2="316.81716" gradientUnits="userSpaceOnUse" id="color-4"><stop offset="0" stop-color="#bb0000"/><stop offset="1" stop-color="#000000"/></linearGradient></defs><g transform="translate(-118.71962,-74.13611)"><g data-paper-data="{&quot;isPaintingLayer&quot;:true}" fill-rule="nonzero" stroke-linejoin="miter" stroke-miterlimit="10" stroke-dasharray="" stroke-dashoffset="0" style="mix-blend-mode: normal"><path d="M343.53248,96.70174l33.56388,28.29083h-63.25501" fill="none" stroke="#0025ff" stroke-width="2.5" stroke-linecap="round"/><path d="M155.78277,106.4624l-33.56388,-27.48663h63.25501" data-paper-data="{&quot;index&quot;:null}" fill="none" stroke="#0025ff" stroke-width="2.5" stroke-linecap="round"/><text transform="translate(151.77268,115.69445) scale(1.11152,1.05211)" font-size="40" xml:space="preserve" fill="#ffffff" fill-rule="nonzero" stroke="#ff0000" stroke-width="5" stroke-linecap="butt" stroke-linejoin="miter" stroke-miterlimit="10" stroke-dasharray="" stroke-dashoffset="0" font-family="Handwriting" font-weight="normal" text-anchor="start" style="mix-blend-mode: normal"><tspan x="0" dy="0">Felicidades</tspan></text><g stroke="#ffbb00"><path d="M342.30692,98.52942l33,25.25641h-62.19231" fill="none" stroke-width="1.5" stroke-linecap="round"/><path d="M156.9223,105.09352l-33,-24.53846h62.19231" data-paper-data="{&quot;index&quot;:null}" fill="none" stroke-width="1.5" stroke-linecap="round"/><text transform="translate(152.97958,114.41018) scale(1.1063,0.96912)" font-size="40" xml:space="preserve" fill="#ffffff" fill-rule="nonzero" stroke="#ffbb00" stroke-width="3" stroke-linecap="butt" stroke-linejoin="miter" stroke-miterlimit="10" stroke-dasharray="" stroke-dashoffset="0" font-family="Handwriting" font-weight="normal" text-anchor="start" style="mix-blend-mode: normal"><tspan x="0" dy="0">Felicidades</tspan></text></g><g stroke="#000000" stroke-linecap="butt"><path d="M301.018,176.93001c0,14.416 -11.729,26.144 -26.144,26.144h-67.713c-14.415,0 -26.143,-11.727 -26.143,-26.144c0,-14.415 11.727,-26.143 26.143,-26.143h67.713c14.415,0 26.144,11.728 26.144,26.143z" fill="url(#color-1)" stroke-width="2.5"/><path d="M296.514,176.93001c0,11.952 -9.688,21.641 -21.64,21.641h-67.713c-11.952,0 -21.641,-9.689 -21.641,-21.641v0c0,-11.951 9.689,-21.64 21.641,-21.64h67.713c11.952,0 21.64,9.689 21.64,21.64z" fill="url(#color-2)" stroke-width="3"/><text transform="translate(196.59228,183.49596) scale(0.44118,0.5)" font-size="40" xml:space="preserve" fill="#f5ff00" fill-rule="nonzero" stroke="#000000" stroke-width="1" stroke-linecap="butt" stroke-linejoin="miter" stroke-miterlimit="10" stroke-dasharray="" stroke-dashoffset="0" font-family="Sans Serif" font-weight="normal" text-anchor="start" style="mix-blend-mode: normal"><tspan x="0" dy="0">Reintentar</tspan></text></g><path d="M323.44687,272.42553c0,29.57117 -15.52918,53.62851 -34.61461,53.62851h-89.65189c-19.08543,0 -34.61329,-24.05529 -34.61329,-53.62851c0,-29.56912 15.52653,-53.62646 34.61329,-53.62646h89.65189c19.08543,0 34.61461,24.05734 34.61461,53.62646z" fill="url(#color-3)" stroke="#000000" stroke-width="2.5" stroke-linecap="butt"/><path d="M317.48358,272.42553c0,24.51683 -12.82689,44.39163 -28.65132,44.39163h-89.65189c-15.82443,0 -28.65265,-19.8748 -28.65265,-44.39163v0c0,-24.51478 12.82822,-44.38957 28.65265,-44.38957h89.65189c15.82443,0 28.65132,19.8748 28.65132,44.38957z" fill="url(#color-4)" stroke="#000000" stroke-width="3" stroke-linecap="butt"/><text transform="translate(179.50077,264.7986) scale(0.51532,0.55224)" font-size="40" xml:space="preserve" fill="#f5ff00" fill-rule="nonzero" stroke="#000000" stroke-width="1" stroke-linecap="butt" stroke-linejoin="miter" stroke-miterlimit="10" stroke-dasharray="" stroke-dashoffset="0" font-family="Sans Serif" font-weight="normal" text-anchor="start" style="mix-blend-mode: normal"><tspan x="0" dy="0">   ¡Ganaste!</tspan><tspan x="0" dy="48px">CODIGO:GB2</tspan></text></g></g></svg>