<svg version="1.1" xmlns="http://www.w3.org/2000/svg" xmlns:xlink="http://www.w3.org/1999/xlink" width="39.645" height="56.181" viewBox="0,0,39.645,56.181"><g transform="translate(-220.813,-152.746)"><g data-paper-data="{&quot;isPaintingLayer&quot;:true}" fill="#ffffff" fill-rule="nonzero" stroke="#ffffff" stroke-width="0.5" stroke-linecap="butt" stroke-linejoin="miter" stroke-miterlimit="10" stroke-dasharray="" stroke-dashoffset="0" style="mix-blend-mode: normal"><path d="M260.202,190.909c0,0.998 -0.499,3.079 -1.495,6.245c-0.235,0.528 -1.174,1.819 -2.815,3.871c-4.34,5.102 -9.5,7.652 -15.481,7.652c-2.697,0 -5.22,-0.587 -7.564,-1.759c-0.997,-0.998 -2.493,-2.229 -4.485,-3.695c-0.06,-0.585 -0.499,-1.407 -1.319,-2.463c-0.646,-0.879 -1.32,-1.759 -2.023,-2.639c-0.06,-0.645 -0.47,-1.964 -1.231,-3.958c-0.704,-1.76 -1.056,-2.844 -1.056,-3.255c0,-0.703 0.365,-1.333 1.1,-1.891c0.732,-0.557 1.509,-0.836 2.331,-0.836c1.113,0 1.876,0.527 2.287,1.583c0,0.587 0.028,1.496 0.088,2.728c0.352,1.701 1.172,3.577 2.463,5.629c1.465,2.287 2.96,3.842 4.485,4.662c1.76,0.88 3.576,1.319 5.454,1.319c3.283,0 6.215,-1.265 8.796,-3.793c1.407,-1.353 2.229,-2.178 2.463,-2.472c0.645,-0.705 1.201,-1.704 1.672,-2.999c-0.118,-0.47 -0.06,-0.823 0.176,-1.06c0.527,-0.411 0.732,-1.44 0.615,-3.088c0,-0.233 0.044,-0.616 0.132,-1.146c0.088,-0.529 0.133,-0.941 0.133,-1.235c0,-0.058 -0.207,-1.322 -0.616,-3.793c-0.176,-0.177 -0.352,-0.383 -0.527,-0.619c-0.353,-3.175 -2.376,-5.557 -6.07,-7.146c-2.873,-1.234 -5.835,-1.765 -8.884,-1.589c-0.938,0.061 -2.186,0.211 -3.738,0.45c-1.555,0.24 -2.683,0.601 -3.387,1.08c-2.581,1.562 -4.457,2.341 -5.629,2.341c-1.407,0 -2.493,-0.821 -3.255,-2.463c0.058,-0.646 0.088,-1.584 0.088,-2.815c-0.176,-1.231 -0.411,-3.107 -0.703,-5.629c-0.235,-2.053 -0.616,-5.336 -1.144,-9.852c-0.176,-1.173 0,-2.111 0.527,-2.815c0.82,-1.113 2.696,-1.671 5.63,-1.671c0.82,0 1.904,0.044 3.254,0.132c1.349,0.088 2.199,0.132 2.551,0.132c2.345,-0.116 5.542,-0.204 9.588,-0.264c0.645,0 1.729,-0.132 3.255,-0.396c1.524,-0.265 2.639,-0.396 3.343,-0.396c1.817,0 2.844,0.734 3.078,2.199c-0.059,1.291 0,3.313 0.177,6.069c0.352,2.287 0.264,3.782 -0.265,4.486c-1.173,0.527 -2.142,0.791 -2.902,0.791c-1.35,0 -2.259,-0.615 -2.728,-1.847c-0.294,-0.762 -0.439,-1.76 -0.439,-2.991c0.058,-1.583 0.029,-2.608 -0.088,-3.078c-1.759,-0.058 -4.398,0.03 -7.916,0.264c-1.408,0.118 -4.722,0.47 -9.94,1.056c-0.176,0.118 -0.382,0.264 -0.615,0.439c-0.118,0.88 0,2.815 0.352,5.806c0.41,3.167 0.616,5.132 0.616,5.894c0.058,0 0.879,-0.264 2.463,-0.792c0.761,-0.116 1.876,-0.293 3.342,-0.527c1.936,-0.469 3.987,-0.704 6.158,-0.704c4.339,0 8.121,0.851 11.347,2.551c3.812,2.054 6.303,5.073 7.477,9.061c0.586,2.053 0.88,3.313 0.88,3.782v5.454z"/></g></g></svg>