<svg version="1.1" xmlns="http://www.w3.org/2000/svg" xmlns:xlink="http://www.w3.org/1999/xlink" width="235.52471" height="106.29903" viewBox="0,0,235.52471,106.29903"><defs><radialGradient cx="241.01801" cy="176.93051" r="60" gradientUnits="userSpaceOnUse" id="color-1"><stop offset="0" stop-color="#787878"/><stop offset="1" stop-color="#001145"/></radialGradient><linearGradient x1="241.01701" y1="155.29001" x2="241.01701" y2="198.57101" gradientUnits="userSpaceOnUse" id="color-2"><stop offset="0" stop-color="#bb0000"/><stop offset="1" stop-color="#000000"/></linearGradient></defs><g transform="translate(-119.54502,-98.02497)"><g data-paper-data="{&quot;isPaintingLayer&quot;:true}" fill-rule="nonzero" stroke-linejoin="miter" stroke-miterlimit="10" stroke-dasharray="" stroke-dashoffset="0" style="mix-blend-mode: normal"><path d="M284.98668,102.31567h63.35155l-33.61511,28.96344" data-paper-data="{&quot;index&quot;:null}" fill="none" stroke="#910000" stroke-width="5" stroke-linecap="round"/><path d="M160.04123,128.66508l-33.61511,-28.14011h63.35155" data-paper-data="{&quot;index&quot;:null}" fill="none" stroke="#910000" stroke-width="5" stroke-linecap="round"/><path d="M301.01801,176.93001c0,14.416 -11.729,26.144 -26.144,26.144h-67.713c-14.415,0 -26.143,-11.727 -26.143,-26.144c0,-14.415 11.727,-26.143 26.143,-26.143h67.713c14.415,0 26.144,11.728 26.144,26.143z" fill="url(#color-1)" stroke="#000000" stroke-width="2.5" stroke-linecap="butt"/><path d="M296.51401,176.93001c0,11.952 -9.688,21.641 -21.64,21.641h-67.713c-11.952,0 -21.641,-9.689 -21.641,-21.641v0c0,-11.951 9.689,-21.64 21.641,-21.64h67.713c11.952,0 21.64,9.689 21.64,21.64z" fill="url(#color-2)" stroke="#000000" stroke-width="3" stroke-linecap="butt"/><text transform="translate(206.83797,186) scale(0.44118,0.5)" font-size="40" xml:space="preserve" fill="#f5ff00" fill-rule="nonzero" stroke="#000000" stroke-width="1" stroke-linecap="butt" stroke-linejoin="miter" stroke-miterlimit="10" stroke-dasharray="" stroke-dashoffset="0" font-family="Sans Serif" font-weight="normal" text-anchor="start" style="mix-blend-mode: normal"><tspan x="0" dy="0">INICIAR</tspan></text><path d="M283.46022,105.46451h62.19231l-33,25.25641" data-paper-data="{&quot;index&quot;:null}" fill="none" stroke="#ff3b3b" stroke-width="1.5" stroke-linecap="round"/><path d="M161.42612,128.25982l-33,-24.53846h62.19231" data-paper-data="{&quot;index&quot;:null}" fill="none" stroke="#ff3b3b" stroke-width="1.5" stroke-linecap="round"/><g fill="#ffffff" stroke-width="3" stroke-linecap="butt" font-family="Handwriting" font-weight="normal" font-size="40" text-anchor="start"><text transform="translate(181.09229,146.46352) scale(0.98718,1.11136)" font-size="40" xml:space="preserve" fill="#ffffff" fill-rule="nonzero" stroke="#910000" stroke-width="3" stroke-linecap="butt" stroke-linejoin="miter" stroke-miterlimit="10" stroke-dasharray="" stroke-dashoffset="0" font-family="Handwriting" font-weight="normal" text-anchor="start" style="mix-blend-mode: normal"><tspan x="0" dy="0">GNave</tspan></text><text transform="translate(179.73727,144.49402) scale(0.96912,0.96912)" font-size="40" xml:space="preserve" fill="#ffffff" fill-rule="nonzero" stroke="#ff3b3b" stroke-width="3" stroke-linecap="butt" stroke-linejoin="miter" stroke-miterlimit="10" stroke-dasharray="" stroke-dashoffset="0" font-family="Handwriting" font-weight="normal" text-anchor="start" style="mix-blend-mode: normal"><tspan x="0" dy="0">GNave</tspan></text></g></g></g></svg>