<svg version="1.1" xmlns="http://www.w3.org/2000/svg" xmlns:xlink="http://www.w3.org/1999/xlink" width="91.58522" height="68.11118" viewBox="0,0,91.58522,68.11118"><g transform="translate(-169.09962,-145.94441)"><g data-paper-data="{&quot;isPaintingLayer&quot;:true}" fill-rule="nonzero" stroke-linecap="butt" stroke-linejoin="miter" stroke-miterlimit="10" stroke-dasharray="" stroke-dashoffset="0" style="mix-blend-mode: normal"><path d="M260.55227,203.33257c-0.18737,1.81414 -0.90282,3.52608 -2.05262,4.93991c-1.68638,2.07817 -3.65383,3.56015 -5.84272,4.40333c-2.01003,0.77506 -4.25003,1.03908 -7.00957,0.82616c-0.32365,-0.02555 -0.57065,-0.03407 -0.7495,-0.04258c-0.03407,0.00851 -0.06813,0.01704 -0.11072,0.02555c-1.48198,0.39178 -2.71695,0.57064 -3.89231,0.57064c-1.05612,0 -1.993,-0.17886 -2.80212,-0.41734c-1.17536,0.07665 -2.12076,0.11073 -2.88729,0.11073h-3.5857c-1.62677,-0.06814 -6.48151,-0.25551 -9.46249,-4.37778c-0.40031,-0.52806 -1.14129,-1.56715 -1.71193,-2.99802c-0.24699,-0.50251 -0.46844,-1.02205 -0.6473,-1.57566c-0.51102,-1.53307 -0.62175,-3.16835 -0.30661,-4.75253c1.17536,-6.0301 5.74051,-8.92592 10.23754,-9.82872c-0.05111,-4.42889 -0.1959,-9.83724 -0.44289,-16.19099c-0.00851,-0.22996 -0.00851,-0.46844 0,-0.70692c-1.63528,-0.75802 -3.06615,-1.89079 -4.18189,-3.34722c-1.51604,-1.93338 -2.3422,-4.32668 -2.3422,-6.78812c0,-4.30113 2.35924,-7.98904 7.01809,-10.97002c0.04259,-0.02555 0.07665,-0.0511 0.11924,-0.06813c0.30661,-0.1959 0.52805,-0.34921 0.68988,-0.45992c0.55361,-0.90281 1.26053,-1.71194 2.09521,-2.38479c2.71695,-2.19741 5.89383,-3.35573 9.18142,-3.35573c5.94493,0 10.7145,3.92638 11.88986,9.77762c0.31513,1.59269 0.21293,3.2365 -0.28958,4.76958c-0.09369,1.10722 -0.22144,3.16836 -0.35772,6.94143c-0.00851,0.43437 -0.03406,1.00502 -0.08517,1.98449c-0.03407,0.50251 -0.05111,0.8517 -0.05962,1.0476v7.63983c0.00851,0.25552 0.04259,0.73247 0.08517,1.42236c0.12776,1.84821 0.13628,2.07817 0.13628,2.45292v8.43192c2.38478,1.03909 4.45444,2.86174 5.98752,5.32318c1.86525,2.96395 1.55011,5.97048 1.37977,7.59725z" id="ID0.47614098666235805" fill="#a500bb" stroke="none" stroke-width="1"/><path d="M253.477,207.239c-0.763,0.938 -1.525,1.554 -2.287,1.848c-0.763,0.293 -1.906,0.381 -3.431,0.264c-1.701,-0.118 -2.814,-0.118 -3.343,0c-0.059,0 -0.483,0.102 -1.275,0.308c-0.791,0.205 -1.394,0.309 -1.803,0.309c-0.118,0 -0.338,-0.104 -0.66,-0.309c-0.323,-0.206 -0.571,-0.308 -0.747,-0.308c-0.295,0 -1.071,0.044 -2.331,0.132c-1.262,0.088 -2.243,0.132 -2.947,0.132c-1.231,0 -2.493,0 -3.782,0c-1.525,-0.059 -2.405,-0.264 -2.639,-0.615c-0.527,-0.704 -0.792,-1.231 -0.792,-1.583c-0.176,-0.177 -0.322,-0.44 -0.439,-0.792c0.469,-2.404 2.756,-3.371 6.861,-2.902c2.99,0.294 4.75,0.264 5.277,-0.089c0.233,-6.273 0.088,-16.302 -0.439,-30.082c0.233,-2.58 0.468,-6.802 0.703,-12.667c-0.411,-0.058 -0.998,0.207 -1.759,0.792c-0.88,0.763 -1.438,1.203 -1.672,1.319c-0.763,0.294 -1.525,0.44 -2.287,0.44c-0.997,0 -1.729,-0.322 -2.198,-0.968c-0.294,-0.353 -0.44,-0.762 -0.44,-1.231c0,-1.056 1.056,-2.257 3.167,-3.606c2.463,-1.524 3.928,-2.903 4.398,-4.135c1.231,-0.997 2.52,-1.496 3.87,-1.496c1.759,0 2.814,0.88 3.166,2.639c-0.118,0.235 -0.234,0.559 -0.352,0.968c-0.235,1.818 -0.439,5.277 -0.616,10.38c0,0.294 -0.03,0.938 -0.088,1.935c-0.059,0.998 -0.088,1.555 -0.088,1.672v9.411c0,0.118 0.044,0.836 0.132,2.155c0.088,1.319 0.133,2.038 0.133,2.155v20.055c1.583,0.294 2.667,0.323 3.254,0.088c0.762,-0.292 1.437,-0.439 2.023,-0.439c1.349,0 2.492,0.763 3.431,2.287c0.116,0.174 0.116,0.819 0,1.933z" id="ID0.45730895223096013" fill="#ffffff" stroke="none" stroke-width="1"/><path d="M188.44975,201.8822v-44.72898h9.93977v44.72898z" fill="#e000ff" stroke="#ffffff" stroke-width="4"/><path d="M215.8286,184.44493h-44.72898v-9.93977h44.72898z" data-paper-data="{&quot;index&quot;:null}" fill="#e000ff" stroke="#ffffff" stroke-width="4"/></g></g></svg>