<svg version="1.1" xmlns="http://www.w3.org/2000/svg" xmlns:xlink="http://www.w3.org/1999/xlink" width="49.85159" height="46.27285" viewBox="0,0,49.85159,46.27285"><g transform="translate(-215.0742,-156.89902)"><g data-paper-data="{&quot;isPaintingLayer&quot;:true}" fill="#ffbc1f" fill-rule="nonzero" stroke="#ff0000" stroke-width="2" stroke-linecap="butt" stroke-linejoin="miter" stroke-miterlimit="10" stroke-dasharray="" stroke-dashoffset="0" style="mix-blend-mode: normal"><path d="M238.75059,202.06451c0,0 -12.47604,-5.64746 -16.89177,-10.50918c-4.08209,-4.49437 -5.78462,-13.11706 -5.78462,-13.11706c0,-6.99438 4.62661,-16.43778 13.54063,-17.01844c-9.2869,9.53265 -0.63745,10.83305 -0.1916,17.36192c0.54603,7.99572 -0.41273,5.88884 2.87061,1.54217c4.75002,-6.28836 7.96306,-3.3545 6.45676,-22.38843c8.65739,0.28662 9.80979,20.19028 9.35343,18.35687c-1.38394,-5.55989 15.43164,-14.98178 11.21025,-9.43009c-1.12419,1.47845 1.85008,4.91175 3.26158,6.23098c6.78288,6.33977 -13.68635,28.97125 -23.82525,28.97125z" data-paper-data="{&quot;index&quot;:null}"/></g></g></svg>