<svg version="1.1" xmlns="http://www.w3.org/2000/svg" xmlns:xlink="http://www.w3.org/1999/xlink" width="82.48185" height="80.79852" viewBox="0,0,82.48185,80.79852"><g transform="translate(-198.75908,-139.60074)"><g data-paper-data="{&quot;isPaintingLayer&quot;:true}" fill-rule="nonzero" stroke-linecap="butt" stroke-linejoin="miter" stroke-miterlimit="10" stroke-dasharray="" stroke-dashoffset="0" style="mix-blend-mode: normal"><path d="M207.83646,180.15723c0,-17.41336 14.11631,-31.52966 31.52966,-31.52966c17.41336,0 31.52966,14.11631 31.52966,31.52966c0,17.41336 -14.11631,31.52966 -31.52966,31.52966c-17.41336,0 -31.52966,-14.11631 -31.52966,-31.52966z" fill="#ffffff" stroke="#000000" stroke-width="2"/><path d="M198.75908,176.03726c0,-2.02228 1.63938,-3.66166 3.66166,-3.66166c2.02228,0 3.66166,1.63938 3.66166,3.66166c0,2.02228 -1.63938,3.66166 -3.66166,3.66166c-2.02228,0 -3.66166,-1.63938 -3.66166,-3.66166z" fill="#000000" stroke="none" stroke-width="0.5"/><path d="M207.82925,153.57777c0,-2.02228 1.63938,-3.66166 3.66166,-3.66166c2.02228,0 3.66166,1.63938 3.66166,3.66166c0,2.02228 -1.63938,3.66166 -3.66166,3.66166c-2.02228,0 -3.66166,-1.63938 -3.66166,-3.66166z" fill="#000000" stroke="none" stroke-width="0.5"/><path d="M233.09805,143.26241c0,-2.02228 1.63938,-3.66166 3.66166,-3.66166c2.02228,0 3.66166,1.63938 3.66166,3.66166c0,2.02228 -1.63938,3.66166 -3.66166,3.66166c-2.02228,0 -3.66166,-1.63938 -3.66166,-3.66166z" fill="#000000" stroke="none" stroke-width="0.5"/><path d="M260.31108,150.3378c0,-2.02228 1.63938,-3.66166 3.66166,-3.66166c2.02228,0 3.66166,1.63938 3.66166,3.66166c0,2.02228 -1.63938,3.66166 -3.66166,3.66166c-2.02228,0 -3.66166,-1.63938 -3.66166,-3.66166z" fill="#000000" stroke="none" stroke-width="0.5"/><path d="M273.9176,169.38692c0,-2.02228 1.63938,-3.66166 3.66166,-3.66166c2.02228,0 3.66166,1.63938 3.66166,3.66166c0,2.02228 -1.63938,3.66166 -3.66166,3.66166c-2.02228,0 -3.66166,-1.63938 -3.66166,-3.66166z" fill="#000000" stroke="none" stroke-width="0.5"/><path d="M271.74056,191.15734c0,-2.02228 1.63938,-3.66166 3.66166,-3.66166c2.02228,0 3.66166,1.63938 3.66166,3.66166c0,2.02228 -1.63938,3.66166 -3.66166,3.66166c-2.02228,0 -3.66166,-1.63938 -3.66166,-3.66166z" fill="#000000" stroke="none" stroke-width="0.5"/><path d="M259.22256,211.83925c0,-2.02228 1.63938,-3.66166 3.66166,-3.66166c2.02228,0 3.66166,1.63938 3.66166,3.66166c0,2.02228 -1.63938,3.66166 -3.66166,3.66166c-2.02228,0 -3.66166,-1.63938 -3.66166,-3.66166z" fill="#000000" stroke="none" stroke-width="0.5"/><path d="M226.56693,216.73759c0,-2.02228 1.63938,-3.66166 3.66166,-3.66166c2.02228,0 3.66166,1.63938 3.66166,3.66166c0,2.02228 -1.63938,3.66166 -3.66166,3.66166c-2.02228,0 -3.66166,-1.63938 -3.66166,-3.66166z" fill="#000000" stroke="none" stroke-width="0.5"/><path d="M203.16371,204.2196c0,-2.02228 1.63938,-3.66166 3.66166,-3.66166c2.02228,0 3.66166,1.63938 3.66166,3.66166c0,2.02228 -1.63938,3.66166 -3.66166,3.66166c-2.02228,0 -3.66166,-1.63938 -3.66166,-3.66166z" fill="#000000" stroke="none" stroke-width="0.5"/></g></g></svg>