<svg version="1.1" xmlns="http://www.w3.org/2000/svg" xmlns:xlink="http://www.w3.org/1999/xlink" width="47.2635" height="67.71899" viewBox="0,0,47.2635,67.71899"><g transform="translate(-217.6623,-135.34551)"><g data-paper-data="{&quot;isPaintingLayer&quot;:true}" fill="#ffbc1f" fill-rule="nonzero" stroke="#ff0000" stroke-width="2" stroke-linecap="butt" stroke-linejoin="miter" stroke-miterlimit="10" stroke-dasharray="" stroke-dashoffset="0" style="mix-blend-mode: normal"><path d="M241.24939,202.0645c-10.1389,0 -31.49054,-20.18832 -18.53081,-34.54562c1.4115,-1.79406 -0.90867,-11.31635 -2.03286,-13.32694c-4.22139,-7.54991 12.59419,5.26319 11.21025,12.82425c-0.4427,2.41869 4.83399,-21.40022 11.23642,-27.49913c0.01953,-0.0186 0.05238,-0.0128 0.07865,-0.0188c0.22505,-0.05139 2.5965,-3.08298 2.82851,-3.09343c-4.0457,16.21423 -6.53904,15.14709 -5.19228,28.33938c0.14626,0.73308 0.47393,1.33617 0.9178,1.87647c1.77331,2.93881 4.30038,2.92427 5.94109,5.87814c3.28334,5.91116 2.32458,8.77637 2.87061,-2.09725c0.44585,-8.8788 9.0953,-10.64725 -0.1916,-23.61098c8.91402,0.78965 13.54063,13.63202 13.54063,23.14388c0,0 -1.70253,11.72625 -5.78462,17.83828c-4.41573,6.6116 -16.89177,14.29174 -16.89177,14.29174z" data-paper-data="{&quot;index&quot;:null}"/></g></g></svg>