<svg version="1.1" xmlns="http://www.w3.org/2000/svg" xmlns:xlink="http://www.w3.org/1999/xlink" width="540.03754" height="541" viewBox="0,0,540.03754,541"><defs><radialGradient cx="231.87106" cy="155.23123" r="268.76876" gradientUnits="userSpaceOnUse" id="color-1"><stop offset="0" stop-color="#110069"/><stop offset="1" stop-color="#000000"/></radialGradient></defs><g transform="translate(39.64921,116.75075)"><g data-paper-data="{&quot;isPaintingLayer&quot;:true}" fill-rule="nonzero" stroke="#161b32" stroke-linejoin="miter" stroke-miterlimit="10" stroke-dasharray="" stroke-dashoffset="0" style="mix-blend-mode: normal"><path d="M-38.39921,386.46246v-426.42642h537.53754v426.42643z" fill="url(#color-1)" stroke-width="2.5" stroke-linecap="butt"/><path d="M97.94768,38.74925c0,-0.55228 0.44772,-1 1,-1c0.55228,0 1,0.44772 1,1c0,0.55228 -0.44772,1 -1,1c-0.55228,0 -1,-0.44772 -1,-1z" fill="#ffffff" stroke-width="0.5" stroke-linecap="butt"/><path d="M39.94768,118.74925c0,-0.55228 0.44772,-1 1,-1c0.55228,0 1,0.44772 1,1c0,0.55228 -0.44772,1 -1,1c-0.55228,0 -1,-0.44772 -1,-1z" fill="#ffffff" stroke-width="0.5" stroke-linecap="butt"/><path d="M75.94768,276.74925c0,-0.55228 0.44772,-1 1,-1c0.55228,0 1,0.44772 1,1c0,0.55228 -0.44772,1 -1,1c-0.55228,0 -1,-0.44772 -1,-1z" fill="#ffffff" stroke-width="0.5" stroke-linecap="butt"/><path d="M133.94768,184.74925c0,-0.55229 0.44771,-1 1,-1c0.55229,0 1,0.44771 1,1c0,0.55229 -0.44771,1 -1,1c-0.55229,0 -1,-0.44771 -1,-1z" fill="#ffffff" stroke-width="0.5" stroke-linecap="butt"/><path d="M259.94768,254.74925c0,-0.55229 0.44772,-1 1,-1c0.55228,0 1,0.44771 1,1c0,0.55229 -0.44772,1 -1,1c-0.55228,0 -1,-0.44771 -1,-1z" fill="#ffffff" stroke-width="0.5" stroke-linecap="butt"/><path d="M407.94768,220.74925c0,-0.55229 0.44772,-1 1,-1c0.55228,0 1,0.44771 1,1c0,0.55229 -0.44772,1 -1,1c-0.55228,0 -1,-0.44771 -1,-1z" fill="#ffffff" stroke-width="0.5" stroke-linecap="butt"/><path d="M407.94768,120.74925c0,-0.55228 0.44772,-1 1,-1c0.55228,0 1,0.44772 1,1c0,0.55228 -0.44772,1 -1,1c-0.55228,0 -1,-0.44772 -1,-1z" fill="#ffffff" stroke-width="0.5" stroke-linecap="butt"/><path d="M283.94768,132.74925c0,-0.55229 0.44772,-1 1,-1c0.55228,0 1,0.44771 1,1c0,0.55229 -0.44772,1 -1,1c-0.55228,0 -1,-0.44771 -1,-1z" fill="#ffffff" stroke-width="0.5" stroke-linecap="butt"/><path d="M227.94768,58.74925c0,-0.55228 0.44771,-1 1,-1c0.55229,0 1,0.44772 1,1c0,0.55228 -0.44771,1 -1,1c-0.55229,0 -1,-0.44772 -1,-1z" fill="#ffffff" stroke-width="0.5" stroke-linecap="butt"/><path d="M319.94768,36.74925c0,-0.55228 0.44772,-1 1,-1c0.55228,0 1,0.44772 1,1c0,0.55228 -0.44772,1 -1,1c-0.55228,0 -1,-0.44772 -1,-1z" fill="#ffffff" stroke-width="0.5" stroke-linecap="butt"/><path d="M431.94768,26.74925c0,-0.55229 0.44772,-1 1,-1c0.55228,0 1,0.44771 1,1c0,0.55229 -0.44772,1 -1,1c-0.55228,0 -1,-0.44771 -1,-1z" fill="#ffffff" stroke-width="0.5" stroke-linecap="butt"/><path d="M145.94768,16.74925c0,-0.55229 0.44771,-1 1,-1c0.55229,0 1,0.44771 1,1c0,0.55229 -0.44771,1 -1,1c-0.55229,0 -1,-0.44771 -1,-1z" fill="#ffffff" stroke-width="0.5" stroke-linecap="butt"/><path d="M29.94768,16.74925c0,-0.55229 0.44771,-1 1,-1c0.55229,0 1,0.44771 1,1c0,0.55229 -0.44771,1 -1,1c-0.55229,0 -1,-0.44771 -1,-1z" fill="#ffffff" stroke-width="0.5" stroke-linecap="butt"/><path d="M415.94768,306.74925c0,-0.55228 0.44772,-1 1,-1c0.55228,0 1,0.44772 1,1c0,0.55228 -0.44772,1 -1,1c-0.55228,0 -1,-0.44772 -1,-1z" fill="#ffffff" stroke-width="0.5" stroke-linecap="butt"/><path d="M245.94768,314.74925c0,-1 1,-1 1,-1c0.33334,0 1.66666,0 2,0c0,0 1,0 1,1c0,1 -1,1 -1,1c-0.33334,0 -0.66666,0 -1,0h-1c0,0 -1,0 -1,-1z" fill="#ffffff" stroke-width="0.5" stroke-linecap="butt"/><path d="M47.94768,342.74925c0,-0.55228 0.44772,-1 1,-1c0.55228,0 1,0.44772 1,1c0,0.55228 -0.44772,1 -1,1c-0.55228,0 -1,-0.44772 -1,-1z" fill="#ffffff" stroke-width="0.5" stroke-linecap="butt"/><path d="M29.94768,208.74925c0,-0.55229 0.44771,-1 1,-1c0.55229,0 1,0.44771 1,1c0,0.55229 -0.44771,1 -1,1c-0.55229,0 -1,-0.44771 -1,-1z" fill="#ffffff" stroke-width="0.5" stroke-linecap="butt"/><path d="M149.94768,260.74925c0,-0.55228 0.44771,-1 1,-1c0.55229,0 1,0.44772 1,1c0,0.55228 -0.44771,1 -1,1c-0.55229,0 -1,-0.44772 -1,-1z" fill="#ffffff" stroke-width="0.5" stroke-linecap="butt"/><path d="M151.94768,324.74925c0,-0.55228 0.44771,-1 1,-1c0.55229,0 1,0.44772 1,1c0,0.55228 -0.44771,1 -1,1c-0.55229,0 -1,-0.44772 -1,-1z" fill="#ffffff" stroke-width="0.5" stroke-linecap="butt"/><path d="M351.94768,282.74925c0,-0.55228 0.44772,-1 1,-1c0.55228,0 1,0.44772 1,1c0,0.55228 -0.44772,1 -1,1c-0.55228,0 -1,-0.44772 -1,-1z" fill="#ffffff" stroke-width="0.5" stroke-linecap="butt"/><path d="M311.94768,204.74925c0,-0.55229 0.44772,-1 1,-1c0.55228,0 1,0.44771 1,1c0,0.55229 -0.44772,1 -1,1c-0.55228,0 -1,-0.44771 -1,-1z" fill="#ffffff" stroke-width="0.5" stroke-linecap="butt"/><path d="M209.94768,212.74925c0,-0.55229 0.44771,-1 1,-1c0.55229,0 1,0.44771 1,1c0,0.55229 -0.44771,1 -1,1c-0.55229,0 -1,-0.44771 -1,-1z" fill="#ffffff" stroke-width="0.5" stroke-linecap="butt"/><path d="M197.94768,260.74925c0,-0.55228 0.44771,-1 1,-1c0.55229,0 1,0.44772 1,1c0,0.55228 -0.44771,1 -1,1c-0.55229,0 -1,-0.44772 -1,-1z" fill="#ffffff" stroke-width="0.5" stroke-linecap="butt"/><path d="M179.94768,144.74925c0,-0.55229 0.44771,-1 1,-1c0.55229,0 1,0.44771 1,1c0,0.55229 -0.44771,1 -1,1c-0.55229,0 -1,-0.44771 -1,-1z" fill="#ffffff" stroke-width="0.5" stroke-linecap="butt"/><path d="M105.94768,94.74925c0,-0.55228 0.44772,-1 1,-1c0.55228,0 1,0.44772 1,1c0,0.55228 -0.44772,1 -1,1c-0.55228,0 -1,-0.44772 -1,-1z" fill="#ffffff" stroke-width="0.5" stroke-linecap="butt"/><path d="M213.94768,118.74925c0,-0.55228 0.44771,-1 1,-1c0.55229,0 1,0.44772 1,1c0,0.55228 -0.44771,1 -1,1c-0.55229,0 -1,-0.44772 -1,-1z" fill="#ffffff" stroke-width="0.5" stroke-linecap="butt"/><path d="M-9.05232,106.74925l221,-221" fill="none" stroke-width="5" stroke-linecap="round"/><path d="M-7.05232,280.74925l365,-365" fill="none" stroke-width="5" stroke-linecap="round"/><path d="M60.94768,36.74925v318" fill="none" stroke-width="5" stroke-linecap="round"/><path d="M162.94768,-23.25075v422" fill="none" stroke-width="5" stroke-linecap="round"/><path d="M480.94768,48.74925l-373,373" fill="none" stroke-width="5" stroke-linecap="round"/><path d="M382.94768,374.74925v-442" fill="none" stroke-width="5" stroke-linecap="round"/></g></g></svg>