<svg version="1.1" xmlns="http://www.w3.org/2000/svg" xmlns:xlink="http://www.w3.org/1999/xlink" width="64.87106" height="57.968" viewBox="0,0,64.87106,57.968"><g transform="translate(-193.98894,-150.56469)"><g data-paper-data="{&quot;isPaintingLayer&quot;:true}" fill="#ffffff" fill-rule="nonzero" stroke="none" stroke-width="1" stroke-linecap="butt" stroke-linejoin="miter" stroke-miterlimit="10" stroke-dasharray="" stroke-dashoffset="0" style="mix-blend-mode: normal"><path d="M220.46494,205.80369c-0.763,0.938 -1.525,1.554 -2.287,1.848c-0.763,0.293 -1.906,0.381 -3.431,0.264c-1.701,-0.118 -2.814,-0.118 -3.343,0c-0.059,0 -0.483,0.102 -1.275,0.308c-0.791,0.205 -1.394,0.309 -1.803,0.309c-0.118,0 -0.338,-0.104 -0.66,-0.309c-0.323,-0.206 -0.571,-0.308 -0.747,-0.308c-0.295,0 -1.071,0.044 -2.331,0.132c-1.262,0.088 -2.243,0.132 -2.947,0.132c-1.231,0 -2.493,0 -3.782,0c-1.525,-0.059 -2.405,-0.264 -2.639,-0.615c-0.527,-0.704 -0.792,-1.231 -0.792,-1.583c-0.176,-0.177 -0.322,-0.44 -0.439,-0.792c0.469,-2.404 2.756,-3.371 6.861,-2.902c2.99,0.294 4.75,0.264 5.277,-0.089c0.233,-6.273 0.088,-16.302 -0.439,-30.082c0.233,-2.58 0.468,-6.802 0.703,-12.667c-0.411,-0.058 -0.998,0.207 -1.759,0.792c-0.88,0.763 -1.438,1.203 -1.672,1.319c-0.763,0.294 -1.525,0.44 -2.287,0.44c-0.997,0 -1.729,-0.322 -2.198,-0.968c-0.294,-0.353 -0.44,-0.762 -0.44,-1.231c0,-1.056 1.056,-2.257 3.167,-3.606c2.463,-1.524 3.928,-2.903 4.398,-4.135c1.231,-0.997 2.52,-1.496 3.87,-1.496c1.759,0 2.814,0.88 3.166,2.639c-0.118,0.235 -0.234,0.559 -0.352,0.968c-0.235,1.818 -0.439,5.277 -0.616,10.38c0,0.294 -0.03,0.938 -0.088,1.935c-0.059,0.998 -0.088,1.555 -0.088,1.672v9.411c0,0.118 0.044,0.836 0.132,2.155c0.088,1.319 0.133,2.038 0.133,2.155v20.055c1.583,0.294 2.667,0.323 3.254,0.088c0.762,-0.292 1.437,-0.439 2.023,-0.439c1.349,0 2.492,0.763 3.431,2.287c0.116,0.174 0.116,0.819 0,1.933z"/><path d="M258.859,179.725c0,2.17 -0.471,5.836 -1.408,10.995c-0.293,1.877 -0.879,3.842 -1.76,5.894c-1.35,3.05 -3.65,5.748 -6.904,8.093c-3.255,2.345 -6.407,3.518 -9.456,3.518c-0.997,0 -1.906,-0.146 -2.727,-0.439c-4.457,-1.407 -7.916,-4.075 -10.379,-8.005c-0.471,-0.761 -1.086,-2.052 -1.848,-3.87c-0.821,-2.052 -1.275,-3.635 -1.363,-4.75c-0.088,-1.113 -0.308,-2.579 -0.66,-4.397v-6.51c0.234,-0.116 0.117,-0.292 -0.352,-0.527h0.528c0,-0.293 0.116,-0.85 0.352,-1.671c0.233,-0.821 0.352,-1.437 0.352,-1.848c0,-0.352 -0.088,-0.674 -0.264,-0.968c0.233,0 0.439,-0.088 0.615,-0.264c-0.059,-0.117 -0.206,-0.176 -0.439,-0.176c0.058,-0.058 0.161,-0.146 0.308,-0.264c0.146,-0.117 0.249,-0.205 0.309,-0.264c-0.06,-0.059 -0.132,-0.103 -0.221,-0.133c-0.088,-0.028 -0.162,-0.072 -0.22,-0.132c0.353,-0.938 0.674,-2.228 0.968,-3.87c0.233,-1.348 0.704,-3.195 1.407,-5.541c1.056,-3.4 3.46,-6.919 7.213,-10.556c1.056,-0.996 2.199,-1.612 3.431,-1.847c0.176,0 1.319,-0.059 3.431,-0.177c2.932,-0.116 5.687,0.499 8.268,1.848c2.992,1.525 5.336,3.812 7.037,6.861c0.881,1.583 1.701,3.724 2.463,6.421c0.881,2.99 1.32,5.571 1.32,7.74v4.839zM253.054,169.962c-0.35,-0.82 -0.76,-1.876 -1.227,-3.167c-0.586,-2.639 -2.325,-5.071 -5.217,-7.301c-2.893,-2.228 -5.566,-3.224 -8.021,-2.99c-1.11,0.118 -2.981,1.966 -5.612,5.542c-1.286,1.701 -2.571,5.102 -3.856,10.203c-1.169,4.75 -1.725,8.415 -1.665,10.995c0.116,3.284 0.292,5.571 0.526,6.86c0.408,2.405 1.285,4.604 2.629,6.598c1.286,1.759 2.28,2.902 2.981,3.431c2.629,1.877 5.112,2.814 7.451,2.814c0.525,0 1.022,-0.058 1.49,-0.176c1.11,-0.176 2.424,-0.908 3.944,-2.199c1.286,-1.173 2.25,-2.257 2.894,-3.255c0.876,-1.465 1.695,-3.664 2.455,-6.597c1.168,-4.28 1.754,-8.825 1.754,-13.634c0.002,-2.579 -0.174,-4.954 -0.526,-7.124z"/></g></g></svg>